<?xml version="1.0" standalone="no"?>
<!DOCTYPE svg PUBLIC "-//W3C//DTD SVG 20010904//EN"
 "http://www.w3.org/TR/2001/REC-SVG-20010904/DTD/svg10.dtd">
<svg version="1.0" xmlns="http://www.w3.org/2000/svg"
 width="512.000000pt" height="512.000000pt" viewBox="0 0 512.000000 512.000000"
 preserveAspectRatio="xMidYMid meet">

<g transform="translate(0.000000,512.000000) scale(0.100000,-0.100000)"
fill="#000000" stroke="none">
<path d="M954 3370 c-118 -16 -273 -88 -406 -188 -178 -134 -469 -470 -494
-569 -7 -28 53 -120 182 -279 111 -136 182 -206 290 -287 175 -132 379 -216
497 -205 53 4 51 23 -2 25 -234 10 -558 231 -792 538 -75 100 -124 174 -118
178 2 1 19 8 37 14 30 11 34 10 50 -15 25 -40 92 -132 132 -180 96 -119 122
-146 195 -207 177 -147 349 -235 498 -254 48 -7 92 -9 97 -6 23 14 7 25 -36
25 -41 0 -134 18 -134 26 0 2 5 26 11 54 8 37 15 50 26 48 9 -2 18 2 20 8 2 6
-15 16 -39 23 -67 17 -72 23 -58 65 6 20 15 36 18 36 4 0 34 -9 68 -19 69 -22
143 -30 144 -16 0 5 -27 15 -62 22 -147 30 -370 181 -512 347 l-48 56 73 75
c40 42 76 79 79 83 3 4 37 35 75 68 82 71 187 130 260 147 60 14 68 32 14 31
-43 -1 -136 -38 -209 -83 -62 -39 -280 -248 -311 -298 l-21 -33 21 -29 c58
-81 248 -242 386 -326 14 -9 14 -15 4 -45 -6 -19 -15 -39 -19 -43 -7 -8 -91
41 -174 100 -51 38 -215 208 -267 280 -24 32 -47 61 -52 64 -5 4 12 33 38 65
44 54 50 58 91 59 60 1 79 22 79 85 0 42 5 54 29 77 23 21 32 24 46 15 22 -13
34 -4 19 14 -15 18 -8 27 70 78 85 57 160 92 229 107 71 16 67 33 -5 26 -42
-4 -86 -20 -155 -55 l-97 -49 -31 32 -30 31 42 24 c151 83 252 120 325 120 35
0 53 17 29 26 -27 10 -188 -25 -246 -54 -30 -15 -58 -28 -61 -30 -7 -3 -54 67
-48 72 40 35 259 106 328 106 21 0 31 5 31 15 0 16 -11 17 -106 5z m-255 -176
c12 -20 21 -38 19 -39 -2 -1 -32 -21 -67 -45 -94 -63 -269 -237 -368 -366 -65
-85 -93 -114 -110 -114 -12 0 -25 -4 -28 -10 -7 -12 -55 -14 -55 -2 0 5 28 50
63 100 80 118 218 273 327 367 79 68 176 142 192 144 3 1 16 -15 27 -35z m1
-196 c0 -4 -10 -12 -22 -19 -13 -6 -44 -31 -69 -56 -40 -39 -49 -43 -67 -34
-34 18 -58 13 -92 -19 -30 -28 -32 -34 -28 -82 5 -50 4 -54 -43 -112 -27 -34
-49 -64 -49 -67 0 -19 135 -185 214 -265 105 -104 222 -187 318 -224 38 -15
70 -29 74 -32 3 -3 2 -23 -2 -43 -6 -36 -7 -37 -43 -30 -117 21 -400 237 -522
399 -75 99 -138 191 -138 200 -1 17 142 199 219 277 41 42 102 100 135 128
l60 51 27 -33 c15 -17 28 -35 28 -39z m-166 -164 c19 -18 21 -45 4 -62 -19
-19 -62 -14 -76 9 -11 17 -11 25 3 45 18 28 47 31 69 8z m-285 -284 l23 -35
-26 30 c-14 17 -26 34 -26 39 0 11 0 11 29 -34z m141 10 c6 -11 8 -20 6 -20
-3 0 -10 9 -16 20 -6 11 -8 20 -6 20 3 0 10 -9 16 -20z m-269 -32 c16 -29 2
-21 -22 15 -17 23 -18 28 -6 18 10 -8 23 -23 28 -33z m423 26 c5 -14 4 -15 -9
-4 -17 14 -19 20 -6 20 5 0 12 -7 15 -16z m47 -51 c13 -16 12 -17 -3 -4 -10 7
-18 15 -18 17 0 8 8 3 21 -13z m-36 -142 c-5 -4 -105 104 -119 127 -5 8 21
-16 57 -54 36 -38 64 -71 62 -73z m-234 92 c13 -16 12 -17 -3 -4 -10 7 -18 15
-18 17 0 8 8 3 21 -13z m-131 -24 c15 -28 5 -23 -15 7 -9 15 -12 23 -6 20 6
-4 16 -16 21 -27z m370 -236 c0 -9 -57 37 -95 78 -33 35 -28 32 28 -15 37 -32
67 -60 67 -63z m-160 -8 c13 -14 21 -25 18 -25 -2 0 -15 11 -28 25 -13 14 -21
25 -18 25 2 0 15 -11 28 -25z"/>
<path d="M483 2814 c-7 -18 17 -38 31 -24 11 11 1 40 -14 40 -6 0 -13 -7 -17
-16z"/>
<path d="M1640 3291 c-47 -15 -135 -64 -192 -107 -31 -24 -65 -44 -76 -44 -23
0 -81 -62 -83 -88 -1 -9 -3 -69 -5 -132 -2 -63 -10 -153 -19 -200 -9 -47 -18
-101 -20 -120 -2 -19 -9 -75 -14 -125 -29 -246 3 -365 132 -495 79 -78 201
-142 285 -148 71 -5 84 7 90 84 6 72 -12 94 -77 94 -90 1 -270 83 -313 144
-20 26 -21 37 -14 170 3 77 9 156 14 175 l7 33 205 -1 c113 -1 210 2 217 7 32
21 42 104 17 140 -19 27 -56 28 -268 7 -82 -8 -151 -13 -153 -11 -2 2 3 61 12
132 8 71 16 149 17 174 3 43 5 45 63 78 73 42 163 72 216 72 22 0 67 -9 100
-20 69 -24 91 -17 108 31 25 71 9 112 -52 140 -44 19 -148 25 -197 10z"/>
<path d="M2091 3197 c-12 -16 -18 -54 -41 -267 -6 -58 -24 -213 -40 -345 -49
-400 -71 -656 -57 -684 21 -43 40 -47 114 -28 128 33 259 112 362 220 98 102
135 180 117 250 -7 28 -54 78 -108 114 l-38 26 35 38 c62 69 88 133 93 229 5
100 -14 162 -80 261 -83 123 -174 186 -286 196 -45 4 -60 2 -71 -10z m182
-183 c15 -8 45 -32 65 -53 101 -105 113 -241 29 -329 -61 -64 -152 -91 -226
-67 -25 8 -26 -21 5 270 24 224 19 208 62 200 20 -4 49 -13 65 -21z m59 -657
c40 -19 82 -44 93 -56 19 -22 19 -22 0 -58 -29 -52 -100 -110 -190 -153 -78
-38 -163 -66 -171 -57 -3 3 2 77 11 166 8 89 15 170 15 181 0 18 6 19 84 15
70 -3 97 -10 158 -38z"/>
<path d="M4835 2970 c-60 -38 -126 -79 -145 -91 -64 -40 -134 -85 -195 -124
-108 -69 -129 -82 -204 -129 l-75 -46 -55 30 c-30 17 -59 26 -63 22 -11 -11 2
-21 69 -57 l53 -28 42 28 c24 16 59 38 78 50 19 12 154 97 298 189 145 91 265
166 267 166 4 0 -47 -109 -174 -374 -39 -82 -71 -150 -71 -152 0 -2 30 -68 66
-146 37 -79 80 -172 96 -208 16 -36 40 -87 53 -115 13 -27 23 -51 21 -53 -5
-4 -74 37 -245 145 -354 224 -396 249 -419 262 -20 10 -30 8 -77 -19 -30 -17
-55 -38 -55 -46 0 -18 1 -18 64 13 l54 26 78 -49 c43 -27 83 -51 89 -54 11 -5
162 -99 250 -155 167 -108 297 -185 309 -185 15 0 -3 44 -120 302 l-126 277
37 88 c21 48 44 99 51 113 47 87 164 357 162 372 -2 14 -23 4 -113 -52z"/>
<path d="M3983 2741 c-17 -11 -51 -48 -75 -82 -95 -137 -109 -156 -152 -204
l-45 -50 -68 67 c-37 36 -99 89 -137 117 -58 43 -76 51 -113 51 -25 0 -43 -4
-41 -10 3 -9 106 -102 235 -212 34 -29 62 -56 62 -59 1 -4 -42 -29 -94 -55
-53 -27 -108 -59 -123 -70 -23 -19 -25 -24 -13 -38 17 -21 89 -21 118 -1 12 8
62 35 112 60 140 70 189 121 319 340 91 150 95 194 15 146z"/>
<path d="M2902 2723 c-132 -55 -241 -226 -242 -381 0 -158 101 -212 277 -148
102 37 323 143 323 154 0 12 -24 22 -51 22 -11 0 -55 -16 -97 -36 -158 -74
-233 -89 -291 -59 -112 57 -22 285 144 365 77 37 193 20 236 -34 21 -26 61
-40 90 -31 14 5 19 16 19 39 0 41 -18 57 -73 67 -23 4 -69 17 -102 29 -81 30
-177 35 -233 13z"/>
</g>
</svg>
